<mxfile host="app.diagrams.net" modified="2020-07-28T18:18:44.277Z" agent="5.0 (Macintosh; Intel Mac OS X 10_15_5) AppleWebKit/537.36 (KHTML, like Gecko) Chrome/83.0.4103.116 Safari/537.36" etag="vxg3WRD3LB-JzrO4flxt" version="13.5.4" type="github">
  <diagram name="Page-1" id="c7488fd3-1785-93aa-aadb-54a6760d102a">
    <mxGraphModel dx="1023" dy="1438" grid="1" gridSize="10" guides="1" tooltips="1" connect="1" arrows="1" fold="1" page="1" pageScale="1" pageWidth="1100" pageHeight="850" background="#ffffff" math="0" shadow="0">
      <root>
        <mxCell id="0" />
        <mxCell id="1" parent="0" />
        <mxCell id="2b4e8129b02d487f-1" value="" style="swimlane;html=1;childLayout=stackLayout;horizontal=1;startSize=0;horizontalStack=0;rounded=0;shadow=0;labelBackgroundColor=none;strokeWidth=1;fontFamily=Verdana;fontSize=8;align=center;" parent="1" vertex="1">
          <mxGeometry x="10" y="70" width="1310" height="510" as="geometry">
            <mxRectangle x="180" y="70" width="50" height="20" as="alternateBounds" />
          </mxGeometry>
        </mxCell>
        <mxCell id="2b4e8129b02d487f-2" value="Lane 1" style="swimlane;html=1;startSize=20;horizontal=0;" parent="2b4e8129b02d487f-1" vertex="1">
          <mxGeometry width="1310" height="150" as="geometry" />
        </mxCell>
        <mxCell id="tjolCTW6fTqtkh7f0dyl-22" style="edgeStyle=orthogonalEdgeStyle;rounded=0;orthogonalLoop=1;jettySize=auto;html=1;exitX=1;exitY=0;exitDx=0;exitDy=0;entryX=0.63;entryY=-0.004;entryDx=0;entryDy=0;entryPerimeter=0;" edge="1" parent="2b4e8129b02d487f-2" source="tjolCTW6fTqtkh7f0dyl-13" target="tjolCTW6fTqtkh7f0dyl-17">
          <mxGeometry relative="1" as="geometry">
            <Array as="points">
              <mxPoint x="280" y="-150" />
              <mxPoint x="1253" y="-150" />
            </Array>
          </mxGeometry>
        </mxCell>
        <mxCell id="tjolCTW6fTqtkh7f0dyl-35" style="edgeStyle=orthogonalEdgeStyle;rounded=0;orthogonalLoop=1;jettySize=auto;html=1;exitX=1;exitY=0.25;exitDx=0;exitDy=0;" edge="1" parent="2b4e8129b02d487f-2" source="tjolCTW6fTqtkh7f0dyl-13" target="tjolCTW6fTqtkh7f0dyl-20">
          <mxGeometry relative="1" as="geometry" />
        </mxCell>
        <mxCell id="tjolCTW6fTqtkh7f0dyl-49" value="User &lt;br&gt;inputs choice" style="html=1;strokeWidth=2;shape=manualInput;whiteSpace=wrap;rounded=1;size=26;arcSize=11;" vertex="1" parent="2b4e8129b02d487f-2">
          <mxGeometry x="1030" y="16.25" width="100" height="60" as="geometry" />
        </mxCell>
        <mxCell id="tjolCTW6fTqtkh7f0dyl-13" value="User input yes or no." style="html=1;strokeWidth=2;shape=manualInput;whiteSpace=wrap;rounded=1;size=26;arcSize=11;" vertex="1" parent="2b4e8129b02d487f-2">
          <mxGeometry x="220" y="10" width="60" height="80" as="geometry" />
        </mxCell>
        <mxCell id="tjolCTW6fTqtkh7f0dyl-9" value="" style="endArrow=classic;html=1;entryX=0;entryY=0.5;entryDx=0;entryDy=0;entryPerimeter=0;exitX=1;exitY=0.5;exitDx=0;exitDy=0;exitPerimeter=0;" edge="1" parent="2b4e8129b02d487f-2" source="tjolCTW6fTqtkh7f0dyl-2" target="tjolCTW6fTqtkh7f0dyl-3">
          <mxGeometry width="50" height="50" relative="1" as="geometry">
            <mxPoint x="100" y="70" as="sourcePoint" />
            <mxPoint x="150" y="20" as="targetPoint" />
          </mxGeometry>
        </mxCell>
        <mxCell id="tjolCTW6fTqtkh7f0dyl-25" value="&lt;br&gt;User inputs choice" style="html=1;strokeWidth=2;shape=manualInput;whiteSpace=wrap;rounded=1;size=26;arcSize=11;" vertex="1" parent="2b4e8129b02d487f-2">
          <mxGeometry x="410" y="10" width="70" height="80" as="geometry" />
        </mxCell>
        <mxCell id="tjolCTW6fTqtkh7f0dyl-39" style="edgeStyle=orthogonalEdgeStyle;rounded=0;orthogonalLoop=1;jettySize=auto;html=1;exitX=0.92;exitY=0.14;exitDx=0;exitDy=0;exitPerimeter=0;" edge="1" parent="2b4e8129b02d487f-2" source="tjolCTW6fTqtkh7f0dyl-31" target="tjolCTW6fTqtkh7f0dyl-33">
          <mxGeometry relative="1" as="geometry" />
        </mxCell>
        <mxCell id="tjolCTW6fTqtkh7f0dyl-45" value="Prints new list of parameters w/o first parameter" style="strokeWidth=2;html=1;shape=mxgraph.flowchart.display;whiteSpace=wrap;" vertex="1" parent="2b4e8129b02d487f-2">
          <mxGeometry x="890" y="20" width="130" height="60" as="geometry" />
        </mxCell>
        <mxCell id="tjolCTW6fTqtkh7f0dyl-31" value="Prints activity with readable details" style="strokeWidth=2;html=1;shape=mxgraph.flowchart.display;whiteSpace=wrap;" vertex="1" parent="2b4e8129b02d487f-2">
          <mxGeometry x="490" y="27.5" width="110" height="60" as="geometry" />
        </mxCell>
        <mxCell id="tjolCTW6fTqtkh7f0dyl-33" value="&lt;font style=&quot;font-size: 10px&quot;&gt;Asks if user wants to &lt;br&gt;search for another activity or &lt;br&gt;additional parameters&lt;/font&gt;" style="strokeWidth=2;html=1;shape=mxgraph.flowchart.display;whiteSpace=wrap;" vertex="1" parent="2b4e8129b02d487f-2">
          <mxGeometry x="620" y="16.25" width="140" height="80" as="geometry" />
        </mxCell>
        <mxCell id="tjolCTW6fTqtkh7f0dyl-17" value="Print goodbye message." style="strokeWidth=2;html=1;shape=mxgraph.flowchart.display;whiteSpace=wrap;" vertex="1" parent="2b4e8129b02d487f-2">
          <mxGeometry x="1190" y="30" width="100" height="60" as="geometry" />
        </mxCell>
        <mxCell id="tjolCTW6fTqtkh7f0dyl-2" value="Print Greeting" style="strokeWidth=2;html=1;shape=mxgraph.flowchart.display;whiteSpace=wrap;" vertex="1" parent="2b4e8129b02d487f-2">
          <mxGeometry x="30" y="45" width="70" height="45" as="geometry" />
        </mxCell>
        <mxCell id="tjolCTW6fTqtkh7f0dyl-3" value="Ask if bored?" style="strokeWidth=2;html=1;shape=mxgraph.flowchart.display;whiteSpace=wrap;" vertex="1" parent="2b4e8129b02d487f-2">
          <mxGeometry x="130" y="45" width="70" height="42.5" as="geometry" />
        </mxCell>
        <mxCell id="tjolCTW6fTqtkh7f0dyl-20" value="Prints parameter options." style="strokeWidth=2;html=1;shape=mxgraph.flowchart.display;whiteSpace=wrap;" vertex="1" parent="2b4e8129b02d487f-2">
          <mxGeometry x="300" y="30" width="100" height="60" as="geometry" />
        </mxCell>
        <mxCell id="tjolCTW6fTqtkh7f0dyl-44" style="edgeStyle=orthogonalEdgeStyle;rounded=0;orthogonalLoop=1;jettySize=auto;html=1;exitX=0.25;exitY=1;exitDx=0;exitDy=0;entryX=0.5;entryY=1;entryDx=0;entryDy=0;entryPerimeter=0;" edge="1" parent="2b4e8129b02d487f-2" source="tjolCTW6fTqtkh7f0dyl-42" target="tjolCTW6fTqtkh7f0dyl-20">
          <mxGeometry relative="1" as="geometry" />
        </mxCell>
        <mxCell id="tjolCTW6fTqtkh7f0dyl-46" style="edgeStyle=orthogonalEdgeStyle;rounded=0;orthogonalLoop=1;jettySize=auto;html=1;exitX=1;exitY=0.5;exitDx=0;exitDy=0;entryX=0;entryY=0.5;entryDx=0;entryDy=0;entryPerimeter=0;" edge="1" parent="2b4e8129b02d487f-2" source="tjolCTW6fTqtkh7f0dyl-42" target="tjolCTW6fTqtkh7f0dyl-45">
          <mxGeometry relative="1" as="geometry" />
        </mxCell>
        <mxCell id="tjolCTW6fTqtkh7f0dyl-53" style="edgeStyle=orthogonalEdgeStyle;rounded=0;orthogonalLoop=1;jettySize=auto;html=1;exitX=1;exitY=0;exitDx=0;exitDy=0;entryX=0.5;entryY=0;entryDx=0;entryDy=0;entryPerimeter=0;" edge="1" parent="2b4e8129b02d487f-2" source="tjolCTW6fTqtkh7f0dyl-42" target="tjolCTW6fTqtkh7f0dyl-17">
          <mxGeometry relative="1" as="geometry">
            <Array as="points">
              <mxPoint x="870" y="-120" />
              <mxPoint x="1240" y="-120" />
            </Array>
          </mxGeometry>
        </mxCell>
        <mxCell id="tjolCTW6fTqtkh7f0dyl-42" value="inputs decision" style="html=1;strokeWidth=2;shape=manualInput;whiteSpace=wrap;rounded=1;size=26;arcSize=11;" vertex="1" parent="2b4e8129b02d487f-2">
          <mxGeometry x="770" y="10" width="100" height="80" as="geometry" />
        </mxCell>
        <mxCell id="2b4e8129b02d487f-3" value="Activity class" style="swimlane;html=1;startSize=20;horizontal=0;" parent="2b4e8129b02d487f-1" vertex="1">
          <mxGeometry y="150" width="1310" height="150" as="geometry" />
        </mxCell>
        <mxCell id="tjolCTW6fTqtkh7f0dyl-29" value="new activity is created and stored" style="strokeWidth=2;html=1;shape=mxgraph.flowchart.stored_data;whiteSpace=wrap;" vertex="1" parent="2b4e8129b02d487f-3">
          <mxGeometry x="450" y="45" width="100" height="60" as="geometry" />
        </mxCell>
        <mxCell id="2b4e8129b02d487f-4" value="API class" style="swimlane;html=1;startSize=20;horizontal=0;" parent="2b4e8129b02d487f-1" vertex="1">
          <mxGeometry y="300" width="1310" height="150" as="geometry" />
        </mxCell>
        <mxCell id="tjolCTW6fTqtkh7f0dyl-27" value="Gets activity from Bored API" style="rounded=1;whiteSpace=wrap;html=1;absoluteArcSize=1;arcSize=14;strokeWidth=2;" vertex="1" parent="2b4e8129b02d487f-4">
          <mxGeometry x="405" y="30" width="80" height="80" as="geometry" />
        </mxCell>
        <mxCell id="tjolCTW6fTqtkh7f0dyl-28" style="edgeStyle=orthogonalEdgeStyle;rounded=0;orthogonalLoop=1;jettySize=auto;html=1;exitX=0.5;exitY=1;exitDx=0;exitDy=0;entryX=0.5;entryY=0;entryDx=0;entryDy=0;" edge="1" parent="2b4e8129b02d487f-1" source="tjolCTW6fTqtkh7f0dyl-25" target="tjolCTW6fTqtkh7f0dyl-27">
          <mxGeometry relative="1" as="geometry" />
        </mxCell>
        <mxCell id="tjolCTW6fTqtkh7f0dyl-30" style="edgeStyle=orthogonalEdgeStyle;rounded=0;orthogonalLoop=1;jettySize=auto;html=1;exitX=1;exitY=0.5;exitDx=0;exitDy=0;entryX=0.6;entryY=0.917;entryDx=0;entryDy=0;entryPerimeter=0;" edge="1" parent="2b4e8129b02d487f-1" source="tjolCTW6fTqtkh7f0dyl-27" target="tjolCTW6fTqtkh7f0dyl-29">
          <mxGeometry relative="1" as="geometry" />
        </mxCell>
        <mxCell id="tjolCTW6fTqtkh7f0dyl-36" style="edgeStyle=orthogonalEdgeStyle;rounded=0;orthogonalLoop=1;jettySize=auto;html=1;exitX=0.5;exitY=0;exitDx=0;exitDy=0;exitPerimeter=0;" edge="1" parent="2b4e8129b02d487f-1" source="tjolCTW6fTqtkh7f0dyl-29" target="tjolCTW6fTqtkh7f0dyl-31">
          <mxGeometry relative="1" as="geometry" />
        </mxCell>
        <mxCell id="tjolCTW6fTqtkh7f0dyl-55" style="edgeStyle=orthogonalEdgeStyle;rounded=0;orthogonalLoop=1;jettySize=auto;html=1;exitX=0.5;exitY=1;exitDx=0;exitDy=0;entryX=1;entryY=0.75;entryDx=0;entryDy=0;" edge="1" parent="2b4e8129b02d487f-1" source="tjolCTW6fTqtkh7f0dyl-49" target="tjolCTW6fTqtkh7f0dyl-27">
          <mxGeometry relative="1" as="geometry" />
        </mxCell>
        <mxCell id="tjolCTW6fTqtkh7f0dyl-7" style="edgeStyle=orthogonalEdgeStyle;rounded=0;orthogonalLoop=1;jettySize=auto;html=1;exitX=0.5;exitY=1;exitDx=0;exitDy=0;entryX=0.357;entryY=0.044;entryDx=0;entryDy=0;entryPerimeter=0;" edge="1" parent="1" source="tjolCTW6fTqtkh7f0dyl-1" target="tjolCTW6fTqtkh7f0dyl-2">
          <mxGeometry relative="1" as="geometry" />
        </mxCell>
        <mxCell id="tjolCTW6fTqtkh7f0dyl-1" value="User Starts&lt;br&gt;Program" style="ellipse;whiteSpace=wrap;html=1;" vertex="1" parent="1">
          <mxGeometry x="30" y="-10" width="70" height="40" as="geometry" />
        </mxCell>
        <mxCell id="tjolCTW6fTqtkh7f0dyl-16" style="edgeStyle=orthogonalEdgeStyle;rounded=0;orthogonalLoop=1;jettySize=auto;html=1;exitX=0.5;exitY=0;exitDx=0;exitDy=0;exitPerimeter=0;entryX=0.333;entryY=0.25;entryDx=0;entryDy=0;entryPerimeter=0;" edge="1" parent="1" source="tjolCTW6fTqtkh7f0dyl-10" target="tjolCTW6fTqtkh7f0dyl-13">
          <mxGeometry relative="1" as="geometry" />
        </mxCell>
        <mxCell id="tjolCTW6fTqtkh7f0dyl-10" value="User decides" style="strokeWidth=2;html=1;shape=mxgraph.flowchart.decision;whiteSpace=wrap;" vertex="1" parent="1">
          <mxGeometry x="140" y="-10" width="70" height="70" as="geometry" />
        </mxCell>
        <mxCell id="tjolCTW6fTqtkh7f0dyl-18" value="Exit Program" style="strokeWidth=2;html=1;shape=mxgraph.flowchart.terminator;whiteSpace=wrap;" vertex="1" parent="1">
          <mxGeometry x="1330" y="106.25" width="100" height="60" as="geometry" />
        </mxCell>
        <mxCell id="tjolCTW6fTqtkh7f0dyl-19" style="edgeStyle=orthogonalEdgeStyle;rounded=0;orthogonalLoop=1;jettySize=auto;html=1;exitX=1;exitY=0.5;exitDx=0;exitDy=0;exitPerimeter=0;entryX=0.1;entryY=0.467;entryDx=0;entryDy=0;entryPerimeter=0;" edge="1" parent="1" source="tjolCTW6fTqtkh7f0dyl-17" target="tjolCTW6fTqtkh7f0dyl-18">
          <mxGeometry relative="1" as="geometry" />
        </mxCell>
        <mxCell id="tjolCTW6fTqtkh7f0dyl-26" style="edgeStyle=orthogonalEdgeStyle;rounded=0;orthogonalLoop=1;jettySize=auto;html=1;exitX=1;exitY=0.5;exitDx=0;exitDy=0;exitPerimeter=0;entryX=0.429;entryY=0.25;entryDx=0;entryDy=0;entryPerimeter=0;" edge="1" parent="1" source="tjolCTW6fTqtkh7f0dyl-23" target="tjolCTW6fTqtkh7f0dyl-25">
          <mxGeometry relative="1" as="geometry" />
        </mxCell>
        <mxCell id="tjolCTW6fTqtkh7f0dyl-23" value="User decides parameters" style="strokeWidth=2;html=1;shape=mxgraph.flowchart.decision;whiteSpace=wrap;" vertex="1" parent="1">
          <mxGeometry x="330" y="-16.25" width="100" height="76.25" as="geometry" />
        </mxCell>
        <mxCell id="tjolCTW6fTqtkh7f0dyl-24" style="edgeStyle=orthogonalEdgeStyle;rounded=0;orthogonalLoop=1;jettySize=auto;html=1;exitX=0.5;exitY=0;exitDx=0;exitDy=0;exitPerimeter=0;entryX=0.3;entryY=0.738;entryDx=0;entryDy=0;entryPerimeter=0;" edge="1" parent="1" source="tjolCTW6fTqtkh7f0dyl-20" target="tjolCTW6fTqtkh7f0dyl-23">
          <mxGeometry relative="1" as="geometry" />
        </mxCell>
        <mxCell id="tjolCTW6fTqtkh7f0dyl-34" style="edgeStyle=orthogonalEdgeStyle;rounded=0;orthogonalLoop=1;jettySize=auto;html=1;exitX=0.5;exitY=0;exitDx=0;exitDy=0;exitPerimeter=0;entryX=0.5;entryY=1;entryDx=0;entryDy=0;entryPerimeter=0;" edge="1" parent="1" source="tjolCTW6fTqtkh7f0dyl-3" target="tjolCTW6fTqtkh7f0dyl-10">
          <mxGeometry relative="1" as="geometry" />
        </mxCell>
        <mxCell id="tjolCTW6fTqtkh7f0dyl-52" style="edgeStyle=orthogonalEdgeStyle;rounded=0;orthogonalLoop=1;jettySize=auto;html=1;exitX=1;exitY=0.5;exitDx=0;exitDy=0;exitPerimeter=0;entryX=0.3;entryY=0.375;entryDx=0;entryDy=0;entryPerimeter=0;" edge="1" parent="1" source="tjolCTW6fTqtkh7f0dyl-40" target="tjolCTW6fTqtkh7f0dyl-42">
          <mxGeometry relative="1" as="geometry" />
        </mxCell>
        <mxCell id="tjolCTW6fTqtkh7f0dyl-40" value="User decides" style="strokeWidth=2;html=1;shape=mxgraph.flowchart.decision;whiteSpace=wrap;" vertex="1" parent="1">
          <mxGeometry x="680" y="-50" width="100" height="100" as="geometry" />
        </mxCell>
        <mxCell id="tjolCTW6fTqtkh7f0dyl-41" style="edgeStyle=orthogonalEdgeStyle;rounded=0;orthogonalLoop=1;jettySize=auto;html=1;exitX=0.5;exitY=0;exitDx=0;exitDy=0;exitPerimeter=0;" edge="1" parent="1" source="tjolCTW6fTqtkh7f0dyl-33">
          <mxGeometry relative="1" as="geometry">
            <mxPoint x="700" y="10" as="targetPoint" />
          </mxGeometry>
        </mxCell>
        <mxCell id="tjolCTW6fTqtkh7f0dyl-50" style="edgeStyle=orthogonalEdgeStyle;rounded=0;orthogonalLoop=1;jettySize=auto;html=1;exitX=1;exitY=0.5;exitDx=0;exitDy=0;exitPerimeter=0;entryX=0.5;entryY=0.229;entryDx=0;entryDy=0;entryPerimeter=0;" edge="1" parent="1" source="tjolCTW6fTqtkh7f0dyl-47" target="tjolCTW6fTqtkh7f0dyl-49">
          <mxGeometry relative="1" as="geometry" />
        </mxCell>
        <mxCell id="tjolCTW6fTqtkh7f0dyl-47" value="User &lt;br&gt;decides second parameter" style="strokeWidth=2;html=1;shape=mxgraph.flowchart.decision;whiteSpace=wrap;" vertex="1" parent="1">
          <mxGeometry x="910" y="-40" width="100" height="100" as="geometry" />
        </mxCell>
        <mxCell id="tjolCTW6fTqtkh7f0dyl-48" style="edgeStyle=orthogonalEdgeStyle;rounded=0;orthogonalLoop=1;jettySize=auto;html=1;exitX=0.5;exitY=0;exitDx=0;exitDy=0;exitPerimeter=0;entryX=0.5;entryY=1;entryDx=0;entryDy=0;entryPerimeter=0;" edge="1" parent="1" source="tjolCTW6fTqtkh7f0dyl-45" target="tjolCTW6fTqtkh7f0dyl-47">
          <mxGeometry relative="1" as="geometry" />
        </mxCell>
      </root>
    </mxGraphModel>
  </diagram>
</mxfile>
